STARTFONT 2.1
FONT -sun-chevaraoutline-medium-r-normal--24-240-75-75-p-201-adobe-fontspecific
SIZE 24 75 75
FONTBOUNDINGBOX 50 33 -7 -7

STARTPROPERTIES 28
FOUNDRY "sun"
FAMILY_NAME "chevaraoutline"
WEIGHT_NAME "medium"
SLANT "r"
SETWIDTH_NAME "normal"
ADD_STYLE_NAME ""
PIXEL_SIZE 25
POINT_SIZE 240
RESOLUTION_X 75
RESOLUTION_Y 75
SPACING "p"
AVERAGE_WIDTH 201
CHARSET_REGISTRY "adobe"
CHARSET_ENCODING "fontspecific"
COPYRIGHT "© 1999 Sun Microsystems, Inc."
RAW_PIXELSIZE 1000
RAW_POINTSIZE 964
RAW_ASCENT 1047
RAW_DESCENT 285
RAW_AVERAGE_WIDTH 8051
FACE_NAME "ChevaraOutlineNormal¿ŸD@5"
_XMBDFED_INFO "Edited with xmbdfed 2.4."
WEIGHT 10
X_HEIGHT -2
QUAD_WIDTH 20
DEFAULT_CHAR 4
FONT_DESCENT 7
FONT_ASCENT 26
ENDPROPERTIES

CHARS 202

STARTCHAR char32
ENCODING 32
SWIDTH 10 0
DWIDTH 13 0
BBX 0 0 0 0
BITMAP
ENDCHAR

STARTCHAR char33
ENCODING 33
SWIDTH 32 0
DWIDTH 9 0
BBX 6 18 4 0
BITMAP
78
8C
8C
8C
8C
8C
58
58
78
30
30
20
00
78
8C
8C
8C
78
ENDCHAR

STARTCHAR char34
ENCODING 34
SWIDTH 10 0
DWIDTH 13 0
BBX 10 7 3 11
BITMAP
7380
9AC0
9AC0
5BC0
38C0
3080
6300
ENDCHAR

STARTCHAR char35
ENCODING 35
SWIDTH 17 0
DWIDTH 15 0
BBX 12 18 1 0
BITMAP
0C60
0C40
0840
08C0
18C0
FFF0
1FF0
18C0
1880
1080
1180
FFE0
FFE0
3180
3180
3100
2100
2300
ENDCHAR

STARTCHAR char36
ENCODING 36
SWIDTH 20 0
DWIDTH 26 0
BBX 21 23 6 -3
BITMAP
008800
008800
0FF820
188C60
708BA0
7088A0
B08860
BC8820
9FE820
83FF80
804FE0
604870
1E4838
81E818
C05E08
E049C8
B04828
9E4830
A1C830
C07BC0
004C00
004800
004800
ENDCHAR

STARTCHAR char37
ENCODING 37
SWIDTH 20 0
DWIDTH 36 0
BBX 33 18 6 0
BITMAP
0F80020000
34E0020000
2850040000
4858080000
884C180000
884C100000
884C20F800
884C63CE00
4858428B00
2850858B00
14A1098980
0FC1098980
0002098980
0004098980
000C058B80
0008048B00
001003CE00
002000FC00
ENDCHAR

STARTCHAR char38
ENCODING 38
SWIDTH 20 0
DWIDTH 26 0
BBX 22 18 6 0
BITMAP
03F800
058400
098200
098200
09C200
08E400
046800
0471FC
063898
391C70
591C60
988E40
984780
9C2300
8C2380
8E11C0
477FC0
3F8000
ENDCHAR

STARTCHAR char39
ENCODING 39
SWIDTH 25 0
DWIDTH 7 0
BBX 4 7 2 11
BITMAP
20
40
E0
90
90
90
60
ENDCHAR

STARTCHAR char40
ENCODING 40
SWIDTH 3 0
DWIDTH 11 0
BBX 9 19 3 -1
BITMAP
0380
0F00
1600
2600
2400
4C00
4C00
8C00
8C00
8C00
8C00
8C00
4C00
4400
2600
1600
0F00
0380
0080
ENDCHAR

STARTCHAR char41
ENCODING 41
SWIDTH 3 0
DWIDTH 11 0
BBX 9 19 2 -1
BITMAP
E000
3800
2C00
2600
1300
1300
1380
1180
1180
1180
1180
1180
1300
1300
2600
2C00
3800
E000
8000
ENDCHAR

STARTCHAR char42
ENCODING 42
SWIDTH 32 0
DWIDTH 9 0
BBX 7 8 2 10
BITMAP
10
10
10
FE
10
28
4C
44
ENDCHAR

STARTCHAR char43
ENCODING 43
SWIDTH 24 0
DWIDTH 17 0
BBX 14 14 4 0
BITMAP
0200
0200
0200
0200
0200
0200
FFFC
0200
0200
0200
0200
0200
0200
0200
ENDCHAR

STARTCHAR char44
ENCODING 44
SWIDTH 28 0
DWIDTH 8 0
BBX 6 8 2 -3
BITMAP
30
DC
8C
8C
4C
38
38
60
ENDCHAR

STARTCHAR char45
ENCODING 45
SWIDTH 6 0
DWIDTH 12 0
BBX 10 1 3 8
BITMAP
FFC0
ENDCHAR

STARTCHAR char46
ENCODING 46
SWIDTH 28 0
DWIDTH 8 0
BBX 6 5 2 0
BITMAP
78
9C
8C
8C
78
ENDCHAR

STARTCHAR char47
ENCODING 47
SWIDTH 17 0
DWIDTH 15 0
BBX 14 18 2 0
BITMAP
0004
0004
0008
0010
0020
0060
0040
0080
0100
0200
0200
0400
0800
0800
1000
2000
4000
4000
ENDCHAR

STARTCHAR char48
ENCODING 48
SWIDTH 13 0
DWIDTH 24 0
BBX 20 18 5 0
BITMAP
01FC00
0F0B00
130980
2204C0
460460
460460
860430
860430
860430
860430
860430
860430
460470
460460
2204E0
1304C0
0F8B80
03FC00
ENDCHAR

STARTCHAR char49
ENCODING 49
SWIDTH 21 0
DWIDTH 16 0
BBX 14 19 3 0
BITMAP
0040
00C0
0FC0
F0C0
08C0
08C0
08C0
08C0
08C0
08C0
08C0
08C0
08C0
08C0
08C0
08C0
08C0
08E0
FFFC
ENDCHAR

STARTCHAR char50
ENCODING 50
SWIDTH 2 0
DWIDTH 21 0
BBX 18 18 4 0
BITMAP
07FC00
182300
201180
4011C0
5C10C0
6610C0
4611C0
461180
242300
184E00
00F040
030040
0C0040
1FFFC0
2000C0
4000C0
4000C0
7FFFC0
ENDCHAR

STARTCHAR char51
ENCODING 51
SWIDTH 6 0
DWIDTH 22 0
BBX 19 18 4 0
BITMAP
07FC00
180B80
7C08C0
4608C0
C608C0
4608C0
3C0980
001300
01EE00
001180
3808C0
4C08E0
860860
860860
8608E0
4C08C0
300980
0FFE00
ENDCHAR

STARTCHAR char52
ENCODING 52
SWIDTH 6 0
DWIDTH 22 0
BBX 20 19 4 0
BITMAP
000100
000300
000700
000B00
003300
002300
00C300
014300
024300
044300
084300
104300
204300
404300
FFC3F0
004300
004300
004300
07FFF0
ENDCHAR

STARTCHAR char53
ENCODING 53
SWIDTH 2 0
DWIDTH 21 0
BBX 18 18 4 0
BITMAP
3FFFC0
200180
400300
400600
403800
7FC000
400000
47FC00
781300
400980
0008C0
3808C0
CC08C0
8C08C0
8C08C0
481180
301300
0FFE00
ENDCHAR

STARTCHAR char54
ENCODING 54
SWIDTH 9 0
DWIDTH 23 0
BBX 19 18 5 0
BITMAP
01FE00
0F0580
1308C0
2208C0
4608C0
460780
860000
87FF00
8605C0
8604E0
860460
860460
460460
460460
220460
1304C0
0D0580
03FE00
ENDCHAR

STARTCHAR char55
ENCODING 55
SWIDTH 2 0
DWIDTH 21 0
BBX 19 18 4 0
BITMAP
7FFFE0
4000C0
4001C0
400180
400300
7FFF00
400A00
401400
802C00
004800
005800
009800
013000
023000
047000
047000
086000
0FE000
ENDCHAR

STARTCHAR char56
ENCODING 56
SWIDTH 9 0
DWIDTH 23 0
BBX 19 18 5 0
BITMAP
03FC00
1C0300
280080
4800C0
8E0040
8780C0
83F180
407E00
301F80
0803C0
7701C0
C0C0E0
C03860
C00460
400360
600140
100180
0FFE00
ENDCHAR

STARTCHAR char57
ENCODING 57
SWIDTH 9 0
DWIDTH 23 0
BBX 19 18 5 0
BITMAP
07F000
1E1E00
260B00
4E0980
8E08C0
8E08C0
8E08E0
8E0860
4E0860
660860
1E3860
07C860
1E08C0
2308C0
430980
431380
261600
1FF800
ENDCHAR

STARTCHAR char58
ENCODING 58
SWIDTH 32 0
DWIDTH 9 0
BBX 6 13 4 0
BITMAP
78
8C
8C
8C
78
00
00
00
78
8C
8C
8C
78
ENDCHAR

STARTCHAR char59
ENCODING 59
SWIDTH 32 0
DWIDTH 9 0
BBX 6 16 4 -3
BITMAP
78
8C
88
8C
78
00
00
00
78
9C
8C
8C
5C
38
38
60
ENDCHAR

STARTCHAR char60
ENCODING 60
SWIDTH 21 0
DWIDTH 16 0
BBX 13 13 1 0
BITMAP
0008
0038
00E0
0780
1E00
7800
E000
F000
3C00
0700
01E0
0078
0018
ENDCHAR

STARTCHAR char61
ENCODING 61
SWIDTH 24 0
DWIDTH 17 0
BBX 16 5 3 5
BITMAP
FFFF
0000
0000
0000
FFFF
ENDCHAR

STARTCHAR char62
ENCODING 62
SWIDTH 21 0
DWIDTH 16 0
BBX 13 13 1 0
BITMAP
8000
E000
3800
0F00
03C0
00F0
0038
0078
01E0
0700
3C00
F000
C000
ENDCHAR

STARTCHAR char63
ENCODING 63
SWIDTH 17 0
DWIDTH 15 0
BBX 13 18 3 0
BITMAP
1F80
2060
4050
F058
8858
8898
5F18
3438
0470
07E0
07C0
0400
0000
0F00
1380
1180
1180
0F00
ENDCHAR

STARTCHAR char64
ENCODING 64
SWIDTH 24 0
DWIDTH 27 0
BBX 18 18 4 0
BITMAP
07F800
1C0E00
300700
600180
63ED80
C7FCC0
CE1CC0
CC18C0
DC18C0
D818C0
D83180
D83100
DC7300
4FFE00
679980
300300
1C0C00
07F000
ENDCHAR

STARTCHAR char65
ENCODING 65
SWIDTH 24 0
DWIDTH 27 0
BBX 26 18 4 0
BITMAP
00080000
000C0000
001E0000
00160000
00270000
00430000
00A38000
00A18000
0091C000
0110C000
02086000
020C7000
03FC3000
04023800
04021800
1C011C00
26010E00
FFCFFFC0
ENDCHAR

STARTCHAR char66
ENCODING 66
SWIDTH 24 0
DWIDTH 27 0
BBX 23 18 5 0
BITMAP
FFFFC0
10C270
08C118
08C18C
08C08C
08C08C
08C18C
08C118
08C230
08FE70
08C318
08C18C
08C08C
08C08E
08C08C
08C10C
08C118
FFFFE0
ENDCHAR

STARTCHAR char67
ENCODING 67
SWIDTH 13 0
DWIDTH 24 0
BBX 21 18 5 0
BITMAP
01FE18
0EC1F8
118098
230058
430038
420018
860018
860008
860000
860000
860000
860000
470008
430010
230020
118040
0DC180
03FF00
ENDCHAR

STARTCHAR char68
ENCODING 68
SWIDTH 27 0
DWIDTH 28 0
BBX 24 18 5 0
BITMAP
FFFFC0
10C0B0
08C05C
08C04E
08C046
08C027
08C023
08C023
08C023
08C023
08C023
08C023
08C022
08C046
08C044
08C08C
10C138
FFFFC0
ENDCHAR

STARTCHAR char69
ENCODING 69
SWIDTH 20 0
DWIDTH 26 0
BBX 22 18 5 0
BITMAP
FFFFFC
10C18C
10C04C
10C03C
10C00C
10C10C
10C304
10CD00
10F100
10CD00
10C300
10C104
10C004
10C00C
10C03C
10C04C
10C08C
FFFFFC
ENDCHAR

STARTCHAR char70
ENCODING 70
SWIDTH 13 0
DWIDTH 24 0
BBX 22 18 4 0
BITMAP
FFFFFC
1060CC
08602C
08603C
08600C
08610C
086104
086700
087900
086700
086100
086100
086000
086000
086000
086000
086000
FFFC00
ENDCHAR

STARTCHAR char71
ENCODING 71
SWIDTH 27 0
DWIDTH 28 0
BBX 25 18 6 0
BITMAP
03FE3800
0CC1D800
1100D800
23007800
43001800
42001800
86000800
86000000
86000000
860FFF80
86010E00
86010C00
46010C00
46010C00
23010C00
13010C00
0DC3FC00
03FC0000
ENDCHAR

STARTCHAR char72
ENCODING 72
SWIDTH 2 0
DWIDTH 31 0
BBX 29 18 5 0
BITMAP
FFFDFFF8
08606180
08602180
08602180
08602180
08602180
08602180
08602180
087FE180
08602180
08602180
08602180
08602180
08602180
08602180
08602180
08602180
FFFDFFF8
ENDCHAR

STARTCHAR char73
ENCODING 73
SWIDTH 21 0
DWIDTH 16 0
BBX 14 18 3 0
BITMAP
FFFC
10E0
08C0
08C0
08C0
08C0
08C0
08C0
08C0
08C0
08C0
08C0
08C0
08C0
08C0
08C0
08E0
FFFC
ENDCHAR

STARTCHAR char74
ENCODING 74
SWIDTH 35 0
DWIDTH 20 0
BBX 19 18 3 0
BITMAP
0FFFE0
008700
008600
008600
008600
008600
008600
008600
008600
008600
008600
388600
4C8600
8C8600
8C8600
988400
709800
1FE000
ENDCHAR

STARTCHAR char75
ENCODING 75
SWIDTH 2 0
DWIDTH 31 0
BBX 29 18 5 0
BITMAP
FFFEFFF0
10602380
08601600
08601800
08603000
08604000
08608000
0861C000
0866E000
08687000
08743000
08621800
08621C00
08610E00
08608700
08604380
086041C0
FFFDFFF8
ENDCHAR

STARTCHAR char76
ENCODING 76
SWIDTH 16 0
DWIDTH 25 0
BBX 23 18 4 0
BITMAP
FFFE00
086000
086000
086000
086000
086000
086000
086000
086000
086000
086000
086002
086006
08600E
086016
086026
0860C6
FFFFFE
ENDCHAR

STARTCHAR char77
ENCODING 77
SWIDTH 16 0
DWIDTH 35 0
BBX 32 18 6 0
BITMAP
FFC003FF
10E00638
08600630
08700E30
0E380A30
0A181230
091C1230
090C2230
088E2230
08874230
08434230
08238230
08218230
08110230
08110230
180A0230
2E0A0238
FF843FFF
ENDCHAR

STARTCHAR char78
ENCODING 78
SWIDTH 24 0
DWIDTH 27 0
BBX 25 18 5 0
BITMAP
FFC0FF80
20E02600
10701C00
08380800
0E1C0800
090F0800
08878800
0843C800
0821E800
0810F800
08087800
08043800
08021800
08010800
08008800
18004800
2C002800
FF801800
ENDCHAR

STARTCHAR char79
ENCODING 79
SWIDTH 27 0
DWIDTH 28 0
BBX 24 18 6 0
BITMAP
01FF80
0EC260
118118
23009C
43008E
470086
860087
860043
860043
860043
860043
860043
470046
4300CE
23008C
118098
0E8170
01FFC0
ENDCHAR

STARTCHAR char80
ENCODING 80
SWIDTH 24 0
DWIDTH 27 0
BBX 24 18 5 0
BITMAP
FFFFE0
10E09C
08C04E
08C047
08C043
08C043
08C043
08C046
08C04E
08C0B8
08FFE0
08C000
08C000
08C000
08C000
08C000
10E000
FFFC00
ENDCHAR

STARTCHAR char81
ENCODING 81
SWIDTH 27 0
DWIDTH 28 0
BBX 25 20 6 -2
BITMAP
01FF8000
0EC26000
11813800
23009C00
43008E00
47008600
86004700
86004300
86004300
86004300
86004300
86074300
47198600
43188600
23248C80
11821880
0D823880
03C20F80
00FFC300
00003E00
ENDCHAR

STARTCHAR char82
ENCODING 82
SWIDTH 24 0
DWIDTH 27 0
BBX 24 18 5 0
BITMAP
FFFFC0
10C238
08C11C
08C10C
08C10C
08C10C
08C10C
08C118
08CE30
08F1C0
08C8C0
08C860
08C460
08C430
08C230
08C210
10C118
FFF9FF
ENDCHAR

STARTCHAR char83
ENCODING 83
SWIDTH 20 0
DWIDTH 26 0
BBX 21 18 6 0
BITMAP
0FF020
300EE0
600120
6000A0
B00060
BC0020
9FF020
83FF80
400FE0
600070
1C0018
43F018
400F08
6000C8
700028
5C0030
638030
407FC0
ENDCHAR

STARTCHAR char84
ENCODING 84
SWIDTH 16 0
DWIDTH 25 0
BBX 23 18 4 0
BITMAP
FFFFFE
8E8666
988626
F08616
E0860E
E08606
C08606
808602
008600
008600
008600
008600
008600
008600
008600
008600
008600
07FFE0
ENDCHAR

STARTCHAR char85
ENCODING 85
SWIDTH 24 0
DWIDTH 27 0
BBX 25 18 4 0
BITMAP
FFFC7F80
10E03700
08C01400
08C00C00
08C00800
08C00800
08C00800
08C00800
08C00800
08C00800
08C00800
08C00800
08C00800
08C00800
08C00800
04601000
03206000
00FF8000
ENDCHAR

STARTCHAR char86
ENCODING 86
SWIDTH 24 0
DWIDTH 27 0
BBX 26 19 4 -1
BITMAP
FFFCFFC0
30603300
10601600
08601400
04300800
04380800
02181000
021C1000
010C2000
00862000
00864000
00434000
00438000
00210000
00210000
00120000
00120000
000C0000
00040000
ENDCHAR

STARTCHAR char87
ENCODING 87
SWIDTH 30 0
DWIDTH 39 0
BBX 37 18 6 0
BITMAP
FFFBFFCFF8
30E0830460
10E04302C0
0860230280
0470218100
0430518100
023850C100
021848C200
011C886200
010C846400
008F043400
0086023800
0046021000
0042011000
0024012000
002400A000
001400A000
001800C000
ENDCHAR

STARTCHAR char88
ENCODING 88
SWIDTH 24 0
DWIDTH 27 0
BBX 27 18 4 0
BITMAP
FFFCFFC0
10702600
08703800
04383000
021C6000
020C8000
010F0000
00870000
00438000
0021C000
0020C000
00386000
00443000
00843800
03021C00
0F010E00
13810700
FFF7FFE0
ENDCHAR

STARTCHAR char89
ENCODING 89
SWIDTH 24 0
DWIDTH 27 0
BBX 26 18 4 0
BITMAP
FFFCFFC0
30602300
10601400
08701800
04301000
02182000
021C2000
010C4000
00868000
00470000
00430000
00230000
00230000
00230000
00230000
00230000
00430000
03FFF000
ENDCHAR

STARTCHAR char90
ENCODING 90
SWIDTH 6 0
DWIDTH 22 0
BBX 20 18 4 0
BITMAP
7FFFF0
4E1060
5810C0
7021C0
604180
404300
408700
010E00
020C00
021800
043800
087010
086030
10E070
21C1B0
438230
430430
FFFFF0
ENDCHAR

STARTCHAR char91
ENCODING 91
SWIDTH 10 0
DWIDTH 13 0
BBX 9 18 5 0
BITMAP
FF80
9800
9800
9800
9800
9800
9800
9800
9800
9800
9800
9800
9800
9800
9800
9800
9800
FF80
ENDCHAR

STARTCHAR char92
ENCODING 92
SWIDTH 25 0
DWIDTH 7 0
BBX 7 18 0 0
BITMAP
C0
C0
40
60
60
20
30
30
10
18
18
08
0C
0C
04
06
06
02
ENDCHAR

STARTCHAR char93
ENCODING 93
SWIDTH 10 0
DWIDTH 13 0
BBX 8 18 3 0
BITMAP
FF
13
13
13
13
13
13
13
13
13
13
13
13
13
13
13
13
FF
ENDCHAR

STARTCHAR char94
ENCODING 94
SWIDTH 0 0
DWIDTH 0 0
BBX 9 5 -4 19
BITMAP
1E00
3200
4B00
4900
8780
ENDCHAR

STARTCHAR char95
ENCODING 95
SWIDTH 17 0
DWIDTH 15 0
BBX 14 1 0 -3
BITMAP
FFFC
ENDCHAR

STARTCHAR char96
ENCODING 96
SWIDTH 0 0
DWIDTH 0 0
BBX 5 4 -4 16
BITMAP
F0
30
38
08
ENDCHAR

STARTCHAR char97
ENCODING 97
SWIDTH 6 0
DWIDTH 22 0
BBX 22 15 3 0
BITMAP
003000
003000
005800
005800
008C00
018C00
014600
024700
042300
042180
0FF180
0808C0
1808C0
280860
FF3FFC
ENDCHAR

STARTCHAR char98
ENCODING 98
SWIDTH 6 0
DWIDTH 22 0
BBX 19 15 4 0
BITMAP
FFFF00
1189C0
1184E0
118460
118460
118460
1189C0
11F380
1188C0
118460
118460
118460
118460
1184E0
FFFF80
ENDCHAR

STARTCHAR char99
ENCODING 99
SWIDTH 35 0
DWIDTH 20 0
BBX 17 15 4 0
BITMAP
07F980
1B0680
260280
460180
4C0080
8C0080
8C0080
8C0000
8C0000
8C0000
4C0080
460080
260100
1B0600
07F800
ENDCHAR

STARTCHAR char100
ENCODING 100
SWIDTH 13 0
DWIDTH 24 0
BBX 21 15 4 0
BITMAP
FFFF00
1182C0
118260
118130
118130
118118
118118
118118
118118
118118
118110
118130
118220
1182C0
FFFF00
ENDCHAR

STARTCHAR char101
ENCODING 101
SWIDTH 2 0
DWIDTH 21 0
BBX 19 15 4 0
BITMAP
FFFFE0
118260
118160
1180E0
118860
118820
119800
11E800
119800
118800
118020
1180E0
118760
118460
FFFFE0
ENDCHAR

STARTCHAR char102
ENCODING 102
SWIDTH 35 0
DWIDTH 20 0
BBX 18 15 4 0
BITMAP
FFFFC0
130640
130140
1300C0
130840
130840
131800
13E800
131800
130800
130000
130000
130000
130000
FFE000
ENDCHAR

STARTCHAR char103
ENCODING 103
SWIDTH 9 0
DWIDTH 23 0
BBX 21 15 5 0
BITMAP
07F080
1B0F80
260280
440380
4C0080
8C0080
8C0000
8C0000
8C3FE0
8C08C0
4C08C0
4408C0
2608C0
1F0CC0
07F3C0
ENDCHAR

STARTCHAR char104
ENCODING 104
SWIDTH 20 0
DWIDTH 26 0
BBX 23 15 5 0
BITMAP
FFEFFE
130230
130230
130230
130230
130230
130230
13FE30
130230
130230
130230
130230
130230
130230
FFEFFE
ENDCHAR

STARTCHAR char105
ENCODING 105
SWIDTH 13 0
DWIDTH 14 0
BBX 12 15 3 0
BITMAP
FFF0
1300
1300
1300
1300
1300
1300
1300
1300
1300
1300
1300
1300
1300
FFF0
ENDCHAR

STARTCHAR char106
ENCODING 106
SWIDTH 21 0
DWIDTH 16 0
BBX 16 15 2 0
BITMAP
0FFF
0118
0118
0118
0118
0118
0118
0118
0118
3918
4D18
8D18
9D18
5930
3FC0
ENDCHAR

STARTCHAR char107
ENCODING 107
SWIDTH 20 0
DWIDTH 26 0
BBX 24 15 5 0
BITMAP
FFEFFE
230170
1301C0
130100
130200
130C00
131C00
132600
13E300
131180
1311C0
1308E0
130470
130238
FFEFFF
ENDCHAR

STARTCHAR char108
ENCODING 108
SWIDTH 2 0
DWIDTH 21 0
BBX 19 15 4 0
BITMAP
FFF000
138000
130000
130000
130000
130000
130000
130000
130000
130000
130060
1300E0
130160
130260
FFFFE0
ENDCHAR

STARTCHAR char109
ENCODING 109
SWIDTH 31 0
DWIDTH 29 0
BBX 27 15 5 0
BITMAP
FF803FE0
21802300
10C06300
18C06300
1460A300
1270A300
12312300
11192300
111A2300
108E2300
104C2300
10482300
10282300
38282300
FE11FFE0
ENDCHAR

STARTCHAR char110
ENCODING 110
SWIDTH 9 0
DWIDTH 23 0
BBX 21 15 4 0
BITMAP
FF83F8
21C0E0
10E060
187040
163840
111C40
108E40
104740
1021C0
1010C0
100840
100640
100140
3800C0
FE0040
ENDCHAR

STARTCHAR char111
ENCODING 111
SWIDTH 9 0
DWIDTH 23 0
BBX 19 15 5 0
BITMAP
0FFC00
130B00
260980
4604C0
4C0440
8C0460
8C0460
8C0460
8C0460
8C0460
4C0460
4604C0
2608C0
1B0B80
07FE00
ENDCHAR

STARTCHAR char112
ENCODING 112
SWIDTH 6 0
DWIDTH 22 0
BBX 20 15 4 0
BITMAP
FFFF80
1182E0
118170
118130
118130
118130
118160
1182E0
11FF00
118000
118000
118000
118000
118000
FFF000
ENDCHAR

STARTCHAR char113
ENCODING 113
SWIDTH 9 0
DWIDTH 23 0
BBX 20 17 5 -2
BITMAP
0FFC00
130B00
260980
4604C0
4C0460
8C0460
8C0460
8C0460
8C0460
8C3460
4C4C60
46A4C0
2610D0
1B1190
07FCF0
000220
0001C0
ENDCHAR

STARTCHAR char114
ENCODING 114
SWIDTH 6 0
DWIDTH 22 0
BBX 21 15 4 0
BITMAP
FFFF00
1189C0
118460
118460
118460
118460
11B9C0
11C600
11A300
11A300
119180
119980
1188C0
118CC0
FFE7F8
ENDCHAR

STARTCHAR char115
ENCODING 115
SWIDTH 2 0
DWIDTH 21 0
BBX 17 15 5 0
BITMAP
0FC100
303B00
600500
A00300
B80100
9FE100
83FE00
400700
300180
4FC080
403C80
600280
700180
6E0180
41FE00
ENDCHAR

STARTCHAR char116
ENCODING 116
SWIDTH 2 0
DWIDTH 21 0
BBX 18 15 4 0
BITMAP
FFFFC0
9A3240
E23140
C230C0
C23040
823040
823040
023000
023000
023000
023000
023000
023000
023000
1FFE00
ENDCHAR

STARTCHAR char117
ENCODING 117
SWIDTH 6 0
DWIDTH 22 0
BBX 20 15 4 0
BITMAP
FFE7F0
238160
1301C0
130080
130080
130080
130080
130080
130080
130080
130080
130080
1B0080
098300
07FC00
ENDCHAR

STARTCHAR char118
ENCODING 118
SWIDTH 6 0
DWIDTH 22 0
BBX 22 15 3 0
BITMAP
FFF3FC
118098
0980A0
08C040
046040
046040
023080
013100
011900
009E00
008C00
004400
004800
002800
001000
ENDCHAR

STARTCHAR char119
ENCODING 119
SWIDTH 5 0
DWIDTH 32 0
BBX 31 15 5 0
BITMAP
FFDFF9FC
230430D8
13023050
11821020
09831860
08C28840
04E48C40
02644480
02344680
01382700
01102300
00901200
00901200
00600C00
00600C00
ENDCHAR

STARTCHAR char120
ENCODING 120
SWIDTH 9 0
DWIDTH 23 0
BBX 23 15 3 0
BITMAP
7FF3FC
10C120
08E1C0
046100
023200
011C00
010C00
008600
004700
00A380
011180
0208C0
060460
1A0430
FFCFFE
ENDCHAR

STARTCHAR char121
ENCODING 121
SWIDTH 6 0
DWIDTH 22 0
BBX 22 15 3 0
BITMAP
FFF3FC
10C0B0
08C0C0
08E080
046080
023100
021A00
011A00
010C00
008C00
008C00
008C00
008C00
008C00
07FF80
ENDCHAR

STARTCHAR char122
ENCODING 122
SWIDTH 31 0
DWIDTH 19 0
BBX 16 15 4 0
BITMAP
FFFF
9846
A086
C10C
C118
8230
0430
0860
08C0
1182
2186
430A
8612
8C22
FFFE
ENDCHAR

STARTCHAR char123
ENCODING 123
SWIDTH 32 0
DWIDTH 9 0
BBX 6 23 1 -5
BITMAP
1C
3C
30
30
30
30
30
30
30
30
60
C0
60
30
30
30
30
30
30
30
30
3C
1C
ENDCHAR

STARTCHAR char124
ENCODING 124
SWIDTH 25 0
DWIDTH 7 0
BBX 2 18 2 0
BITMAP
C0
C0
C0
C0
C0
C0
C0
C0
C0
C0
C0
C0
C0
C0
C0
C0
C0
C0
ENDCHAR

STARTCHAR char125
ENCODING 125
SWIDTH 32 0
DWIDTH 9 0
BBX 6 23 1 -5
BITMAP
E0
F0
30
30
30
30
30
30
30
38
1C
0C
18
38
30
30
30
30
30
30
30
F0
E0
ENDCHAR

STARTCHAR char126
ENCODING 126
SWIDTH 0 0
DWIDTH 0 0
BBX 14 5 -7 19
BITMAP
1E04
2784
79D8
8678
81E0
ENDCHAR

STARTCHAR char128
ENCODING 128
SWIDTH 13 0
DWIDTH 24 0
BBX 24 18 2 0
BITMAP
003FC3
01D83F
023013
04600B
086007
084003
10C003
7FFFC1
10C000
7FFFC0
10C000
10C000
08E001
086002
046004
023008
01B830
007FE0
ENDCHAR

STARTCHAR char130
ENCODING 130
SWIDTH 28 0
DWIDTH 8 0
BBX 6 8 2 -3
BITMAP
30
DC
8C
8C
4C
38
38
60
ENDCHAR

STARTCHAR char131
ENCODING 131
SWIDTH 0 0
DWIDTH 0 0
BBX 9 5 -4 19
BITMAP
1E00
3200
4B00
4900
8780
ENDCHAR

STARTCHAR char132
ENCODING 132
SWIDTH 10 0
DWIDTH 13 0
BBX 10 7 3 -3
BITMAP
7180
9AC0
9A40
DBC0
38C0
3080
6300
ENDCHAR

STARTCHAR char133
ENCODING 133
SWIDTH 24 0
DWIDTH 27 0
BBX 19 3 3 0
BITMAP
E0E0E0
E0E0E0
E0E0E0
ENDCHAR

STARTCHAR char134
ENCODING 134
SWIDTH 17 0
DWIDTH 15 0
BBX 12 13 4 3
BITMAP
3F80
1180
0A00
8610
C430
E4D0
9F10
A4F0
C410
8610
0A00
1380
3F80
ENDCHAR

STARTCHAR char136
ENCODING 136
SWIDTH 0 0
DWIDTH 0 0
BBX 7 4 -3 16
BITMAP
38
6C
94
8E
ENDCHAR

STARTCHAR char139
ENCODING 139
SWIDTH 32 0
DWIDTH 9 0
BBX 4 8 2 3
BITMAP
10
30
70
C0
C0
60
30
10
ENDCHAR

STARTCHAR char140
ENCODING 140
SWIDTH 34 0
DWIDTH 40 0
BBX 35 18 8 0
BITMAP
07FE000000
09C1FFFFE0
1180460260
2300460160
43004600E0
4600460860
8600460820
8600463800
860047C800
8600462800
8600461800
8600460820
4600460020
4300460060
23004601E0
1100460260
0D81FFFFE0
03FF000000
ENDCHAR

STARTCHAR char142
ENCODING 142
SWIDTH 16 0
DWIDTH 25 0
BBX 0 0 0 0
BITMAP
ENDCHAR

STARTCHAR char144
ENCODING 144
SWIDTH 16 0
DWIDTH 25 0
BBX 0 0 0 0
BITMAP
ENDCHAR

STARTCHAR char145
ENCODING 145
SWIDTH 25 0
DWIDTH 7 0
BBX 4 7 2 11
BITMAP
20
40
E0
90
90
90
60
ENDCHAR

STARTCHAR char146
ENCODING 146
SWIDTH 25 0
DWIDTH 7 0
BBX 5 7 2 11
BITMAP
70
98
98
58
38
30
60
ENDCHAR

STARTCHAR char147
ENCODING 147
SWIDTH 10 0
DWIDTH 13 0
BBX 10 7 3 11
BITMAP
2080
4100
E380
9240
9240
9240
6180
ENDCHAR

STARTCHAR char148
ENCODING 148
SWIDTH 10 0
DWIDTH 13 0
BBX 10 7 3 11
BITMAP
7380
9AC0
9AC0
5BC0
38C0
3080
6300
ENDCHAR

STARTCHAR char149
ENCODING 149
SWIDTH 32 0
DWIDTH 9 0
BBX 7 6 1 6
BITMAP
38
7C
FE
FE
FE
38
ENDCHAR

STARTCHAR char150
ENCODING 150
SWIDTH 13 0
DWIDTH 24 0
BBX 20 1 4 8
BITMAP
FFFFF0
ENDCHAR

STARTCHAR char151
ENCODING 151
SWIDTH 24 0
DWIDTH 17 0
BBX 16 1 3 7
BITMAP
FFFF
ENDCHAR

STARTCHAR char152
ENCODING 152
SWIDTH 0 0
DWIDTH 0 0
BBX 12 4 -6 16
BITMAP
3C10
7730
8DE0
83C0
ENDCHAR

STARTCHAR char153
ENCODING 153
SWIDTH 16 0
DWIDTH 35 0
BBX 32 15 6 11
BITMAP
FFFFC01F
C639C01C
8609E01C
8609E02C
0601702C
0601706C
0601384C
060138CC
06011C8C
06011C8C
06010D0C
06010F0C
0601070C
0601060C
1F83C23F
ENDCHAR

STARTCHAR char155
ENCODING 155
SWIDTH 32 0
DWIDTH 9 0
BBX 4 8 2 3
BITMAP
80
C0
70
30
30
70
C0
80
ENDCHAR

STARTCHAR char156
ENCODING 156
SWIDTH 9 0
DWIDTH 33 0
BBX 30 15 6 0
BITMAP
03FC0000
1D03FFFC
3202302C
2202301C
4602308C
86023084
86023380
86023C80
86023380
86023080
46023004
4202301C
3202302C
0D02304C
03FFFFFC
ENDCHAR

STARTCHAR char159
ENCODING 159
SWIDTH 24 0
DWIDTH 27 0
BBX 26 23 4 0
BITMAP
01E3C000
01144000
01B44000
00638000
00000000
FFFCFFC0
30602300
10601400
08701800
04301000
02381000
011C2000
010E4000
008E8000
00478000
00670000
00270000
00270000
00270000
00270000
00270000
00438000
03FFF000
ENDCHAR

STARTCHAR char160
ENCODING 160
SWIDTH 2 0
DWIDTH 21 0
BBX 0 0 0 0
BITMAP
ENDCHAR

STARTCHAR char161
ENCODING 161
SWIDTH 32 0
DWIDTH 9 0
BBX 6 18 2 0
BITMAP
78
4C
8C
4C
38
00
10
30
30
38
58
58
4C
8C
8C
8C
8C
78
ENDCHAR

STARTCHAR char162
ENCODING 162
SWIDTH 35 0
DWIDTH 20 0
BBX 17 20 4 -3
BITMAP
002000
002000
07F980
1B2680
262280
462180
4C2080
8C2080
8C2080
8C2000
8C2000
8C2000
4C2080
442080
262100
1B2600
07F800
002000
002000
002000
ENDCHAR

STARTCHAR char163
ENCODING 163
SWIDTH 13 0
DWIDTH 24 0
BBX 22 18 4 0
BITMAP
00FFE0
03E038
04C04C
04C08C
08C08C
08C08C
08C078
08C000
08C000
78FF80
08C000
08C004
08C00C
08C01C
08C03C
08C0DC
10C31C
FFFFFC
ENDCHAR

STARTCHAR char164
ENCODING 164
SWIDTH 0 0
DWIDTH 0 0
BBX 6 5 -1 19
BITMAP
78
90
A0
C0
80
ENDCHAR

STARTCHAR char165
ENCODING 165
SWIDTH 0 0
DWIDTH 0 0
BBX 9 5 -4 19
BITMAP
F080
9900
5900
4E00
3C00
ENDCHAR

STARTCHAR char166
ENCODING 166
SWIDTH 16 0
DWIDTH 25 0
BBX 0 0 0 0
BITMAP
ENDCHAR

STARTCHAR char167
ENCODING 167
SWIDTH 2 0
DWIDTH 21 0
BBX 17 26 4 -7
BITMAP
000300
07F700
180B00
300700
500300
980100
8FC000
87FC00
401F00
200380
180180
37F880
500480
580280
4FC380
47FF00
403F00
200380
1E0180
01F080
400C80
600280
580380
4E0300
51FC00
600000
ENDCHAR

STARTCHAR char168
ENCODING 168
SWIDTH 0 0
DWIDTH 0 0
BBX 9 4 -5 16
BITMAP
6300
9480
9480
6300
ENDCHAR

STARTCHAR char169
ENCODING 169
SWIDTH 2 0
DWIDTH 31 0
BBX 26 25 7 0
BITMAP
00FFC000
03807000
0E001C00
18000E00
30000600
203E2300
6061E180
40C06080
C1806080
81802040
83000040
83000040
83000040
83000040
83000040
838000C0
C1800080
40C04080
60618180
303F0300
30000600
1C000C00
0E001800
0380F000
00FF8000
ENDCHAR

STARTCHAR char170
ENCODING 170
SWIDTH 0 0
DWIDTH 0 0
BBX 10 4 -5 19
BITMAP
F3C0
9240
9240
6180
ENDCHAR

STARTCHAR char171
ENCODING 171
SWIDTH 6 0
DWIDTH 12 0
BBX 10 8 3 4
BITMAP
1080
2100
4200
8400
8400
4200
2100
1080
ENDCHAR

STARTCHAR char172
ENCODING 172
SWIDTH 27 0
DWIDTH 28 0
BBX 25 11 5 0
BITMAP
FFFFFF80
FFFFFF80
00000180
00000180
00000180
00000180
00000180
00000180
00000180
00000180
00000180
ENDCHAR

STARTCHAR char174
ENCODING 174
SWIDTH 2 0
DWIDTH 31 0
BBX 26 25 7 0
BITMAP
00FF8000
0380F000
0E001800
18000C00
30000600
31FF8300
6061C180
4060E080
C060E080
8060E0C0
8061C040
80678040
807E0040
806E0040
80670040
80638040
C061C080
4060E080
61F87980
20000300
30000600
18000E00
0E001800
07807000
00FFC000
ENDCHAR

STARTCHAR char176
ENCODING 176
SWIDTH 21 0
DWIDTH 16 0
BBX 10 11 5 15
BITMAP
1E00
6180
C0C0
C0C0
8040
8040
8040
8040
C0C0
6180
3F00
ENDCHAR

STARTCHAR char177
ENCODING 177
SWIDTH 6 0
DWIDTH 22 0
BBX 20 25 4 0
BITMAP
006000
006000
006000
006000
006000
006000
006000
006000
006000
FFFFF0
FFFFF0
006000
006000
006000
006000
006000
006000
006000
006000
006000
006000
000000
000000
FFFFF0
FFFFF0
ENDCHAR

STARTCHAR char179
ENCODING 179
SWIDTH 16 0
DWIDTH 25 0
BBX 0 0 0 0
BITMAP
ENDCHAR

STARTCHAR char180
ENCODING 180
SWIDTH 0 0
DWIDTH 0 0
BBX 5 4 -1 16
BITMAP
78
60
C0
80
ENDCHAR

STARTCHAR char181
ENCODING 181
SWIDTH 16 0
DWIDTH 25 0
BBX 0 0 0 0
BITMAP
ENDCHAR

STARTCHAR char182
ENCODING 182
SWIDTH 28 0
DWIDTH 18 0
BBX 11 22 2 -4
BITMAP
1FE0
3840
7840
F840
F840
F840
F840
7840
7840
3840
0840
0840
0840
0840
0840
0840
0840
0840
0840
0840
0840
0840
ENDCHAR

STARTCHAR char183
ENCODING 183
SWIDTH 25 0
DWIDTH 7 0
BBX 2 2 3 6
BITMAP
C0
C0
ENDCHAR

STARTCHAR char184
ENCODING 184
SWIDTH 0 0
DWIDTH 0 0
BBX 4 5 -1 -5
BITMAP
E0
90
90
50
20
ENDCHAR

STARTCHAR char185
ENCODING 185
SWIDTH 16 0
DWIDTH 25 0
BBX 0 0 0 0
BITMAP
ENDCHAR

STARTCHAR char186
ENCODING 186
SWIDTH 0 0
DWIDTH 0 0
BBX 14 5 -7 19
BITMAP
1E04
2784
79D8
8678
81E0
ENDCHAR

STARTCHAR char187
ENCODING 187
SWIDTH 6 0
DWIDTH 12 0
BBX 10 8 3 4
BITMAP
8400
4200
2100
1080
1080
2100
4200
8400
ENDCHAR

STARTCHAR char188
ENCODING 188
SWIDTH 16 0
DWIDTH 25 0
BBX 0 0 0 0
BITMAP
ENDCHAR

STARTCHAR char191
ENCODING 191
SWIDTH 17 0
DWIDTH 15 0
BBX 13 18 3 0
BITMAP
0380
04C0
04E0
04C0
0380
0000
0100
0300
1F00
2300
4300
8770
8C88
9088
50C8
5078
3818
0FE0
ENDCHAR

STARTCHAR char192
ENCODING 192
SWIDTH 24 0
DWIDTH 27 0
BBX 26 24 4 0
BITMAP
00F80000
00680000
00380000
000C0000
00040000
00000000
000C0000
000C0000
001E0000
00260000
00270000
00430000
00A38000
00A18000
0091C000
0110E000
02086000
020C7000
03FC3000
04023800
04021800
1C011C00
26010E00
FFCFFFC0
ENDCHAR

STARTCHAR char193
ENCODING 193
SWIDTH 24 0
DWIDTH 27 0
BBX 26 24 4 0
BITMAP
00078000
00090000
000A0000
000C0000
00080000
00000000
000C0000
000C0000
001E0000
00260000
00270000
00430000
00A38000
00A18000
0091C000
0110E000
02086000
020C7000
03FC3000
04023800
04021800
1C011C00
26010E00
FFCFFFC0
ENDCHAR

STARTCHAR char194
ENCODING 194
SWIDTH 24 0
DWIDTH 27 0
BBX 26 24 4 0
BITMAP
001F0000
001B0000
00298000
00448000
0047C000
00000000
000C0000
000C0000
001E0000
00260000
00270000
00430000
00A38000
00A18000
0091C000
0110E000
02086000
020C7000
03FC3000
04023800
04021800
1C011C00
26010E00
FFCFFFC0
ENDCHAR

STARTCHAR char195
ENCODING 195
SWIDTH 24 0
DWIDTH 27 0
BBX 26 24 4 0
BITMAP
00701000
009C1000
01CF6000
023BE000
02078000
00000000
000C0000
000C0000
001E0000
00260000
00270000
00430000
00A38000
00A18000
0091C000
0110E000
02086000
020C7000
03FC3000
04023800
04021800
1C011C00
26010E00
FFCFFFC0
ENDCHAR

STARTCHAR char196
ENCODING 196
SWIDTH 24 0
DWIDTH 27 0
BBX 26 24 4 0
BITMAP
00618000
00B2C000
01144000
0196C000
00618000
00000000
00080000
000C0000
001E0000
00160000
00270000
00430000
00A38000
00A18000
0090C000
0110C000
02086000
02087000
03FC3000
04023800
04021800
1C011C00
26010E00
FFCFFFC0
ENDCHAR

STARTCHAR char197
ENCODING 197
SWIDTH 24 0
DWIDTH 27 0
BBX 26 24 4 0
BITMAP
001C0000
00320000
00210000
00220000
001C0000
00000000
000C0000
000C0000
001E0000
00260000
00270000
00430000
00A38000
00A18000
0091C000
0110E000
02086000
020C7000
03FC3000
04023800
04021800
1C011C00
26010E00
FFCFFFC0
ENDCHAR

STARTCHAR char198
ENCODING 198
SWIDTH 30 0
DWIDTH 39 0
BBX 34 18 6 0
BITMAP
000FFFFFC0
00010C08C0
00028C04C0
00048C02C0
00088C01C0
00088C10C0
00108C1040
00208C7000
00408F9000
00808C7000
01008C1000
01008C1040
03FF8C00C0
04008C00C0
08008C03C0
38008C04C0
2C008C08C0
FFCFFFFFC0
ENDCHAR

STARTCHAR char199
ENCODING 199
SWIDTH 13 0
DWIDTH 24 0
BBX 21 23 5 -5
BITMAP
01FE18
0EC1F8
118098
230058
430038
420018
860018
860008
860000
860000
860000
860000
470008
430010
230020
118040
0D8080
03FF00
003000
004800
004800
002800
001000
ENDCHAR

STARTCHAR char200
ENCODING 200
SWIDTH 20 0
DWIDTH 26 0
BBX 22 24 5 0
BITMAP
01E000
00B000
007000
003000
001000
000000
FFFFFC
10C18C
10C04C
10C02C
10C01C
10C10C
10C304
10CD00
10F100
10CD00
10C300
10C104
10C00C
10C01C
10C02C
10C04C
10C08C
FFFFFC
ENDCHAR

STARTCHAR char201
ENCODING 201
SWIDTH 20 0
DWIDTH 26 0
BBX 22 24 5 0
BITMAP
001F00
001600
001800
003000
002000
000000
FFFFFC
10C18C
10C04C
10C02C
10C01C
10C10C
10C304
10CD00
10F100
10CD00
10C300
10C104
10C00C
10C01C
10C02C
10C04C
10C08C
FFFFFC
ENDCHAR

STARTCHAR char202
ENCODING 202
SWIDTH 20 0
DWIDTH 26 0
BBX 22 24 5 0
BITMAP
003C00
006600
005600
009300
018F00
000000
FFFFFC
10C18C
10C04C
10C02C
10C01C
10C10C
10C304
10CD00
10F100
10CD00
10C300
10C104
10C00C
10C01C
10C02C
10C04C
10C08C
FFFFFC
ENDCHAR

STARTCHAR char203
ENCODING 203
SWIDTH 20 0
DWIDTH 26 0
BBX 22 23 5 0
BITMAP
03CF00
024900
024900
018600
000000
FFFFFC
10C18C
10C04C
10C02C
10C01C
10C10C
10C304
10C500
10F900
10C500
10C300
10C104
10C00C
10C01C
10C02C
10C0CC
10C08C
FFFFFC
ENDCHAR

STARTCHAR char204
ENCODING 204
SWIDTH 21 0
DWIDTH 16 0
BBX 14 24 3 0
BITMAP
1E00
0B00
0500
0300
0100
0000
FFFC
10E0
08C0
08C0
08C0
08C0
08C0
08C0
08C0
08C0
08C0
08C0
08C0
08C0
08C0
08C0
08E0
FFFC
ENDCHAR

STARTCHAR char205
ENCODING 205
SWIDTH 21 0
DWIDTH 16 0
BBX 14 24 3 0
BITMAP
01F0
0160
01C0
0100
0200
0000
FFFC
10E0
08C0
08C0
08C0
08C0
08C0
08C0
08C0
08C0
08C0
08C0
08C0
08C0
08C0
08C0
08E0
FFFC
ENDCHAR

STARTCHAR char206
ENCODING 206
SWIDTH 21 0
DWIDTH 16 0
BBX 14 24 3 0
BITMAP
03C0
06C0
0560
0930
10F0
0000
FFFC
10E0
08C0
08C0
08C0
08C0
08C0
08C0
08C0
08C0
08C0
08C0
08C0
08C0
08C0
08C0
08E0
FFFC
ENDCHAR

STARTCHAR char207
ENCODING 207
SWIDTH 21 0
DWIDTH 16 0
BBX 14 24 3 0
BITMAP
1860
2490
2490
2490
1860
0000
FFFC
1060
08E0
08C0
08C0
08C0
08C0
08C0
08C0
08C0
08C0
08C0
08C0
08C0
08C0
08C0
08E0
FFFC
ENDCHAR

STARTCHAR char209
ENCODING 209
SWIDTH 24 0
DWIDTH 27 0
BBX 25 24 5 0
BITMAP
00F01000
013C2000
03CF6000
043BC000
04078000
00000000
FFC0FF80
20E03600
10701C00
08380800
0E1E0800
090F0800
08878800
0843C800
0821E800
0810F800
08087800
08043800
08021800
08010800
08008800
18004800
2E003800
FF800800
ENDCHAR

STARTCHAR char210
ENCODING 210
SWIDTH 27 0
DWIDTH 28 0
BBX 24 24 6 0
BITMAP
01F000
00D000
007000
001800
000800
000000
01FF80
0EC260
118118
23009C
43008E
470086
860087
860043
860043
860043
860043
860043
470046
4300CE
23008C
118098
0E8170
01FFC0
ENDCHAR

STARTCHAR char211
ENCODING 211
SWIDTH 27 0
DWIDTH 28 0
BBX 24 24 6 0
BITMAP
000F00
001200
001400
001800
001000
000000
01FF80
0EC260
118118
23009C
43008E
470086
860087
860043
860043
860043
860043
860043
470046
4300CE
23008C
118098
0E8170
01FFC0
ENDCHAR

STARTCHAR char212
ENCODING 212
SWIDTH 27 0
DWIDTH 28 0
BBX 24 24 6 0
BITMAP
001E00
003600
005300
004980
008780
000000
01FF80
0EC260
118118
23009C
43008E
470086
860087
860043
860043
860043
860043
860043
470046
4300CE
23008C
118098
0E8170
01FFC0
ENDCHAR

STARTCHAR char213
ENCODING 213
SWIDTH 27 0
DWIDTH 28 0
BBX 24 24 6 0
BITMAP
00E020
013C20
039EC0
0473C0
040F00
000000
01FF80
0EC260
118118
23009C
43008E
470086
860087
860043
860043
860043
860043
860043
470046
4300C6
23008C
118098
0EC170
01FFC0
ENDCHAR

STARTCHAR char214
ENCODING 214
SWIDTH 27 0
DWIDTH 28 0
BBX 24 25 6 -1
BITMAP
00C300
016580
012480
012580
00C300
000000
01FF80
0EC260
118138
23009C
43008C
470086
870046
870047
870047
870047
870047
870047
470046
43008E
23008C
118098
0D8130
03C2E0
007F00
ENDCHAR

STARTCHAR char216
ENCODING 216
SWIDTH 27 0
DWIDTH 28 0
BBX 24 19 6 -1
BITMAP
01FF88
0EC270
118138
23009C
43008E
470186
860687
860883
861083
862083
864083
868083
470086
430086
23008C
118118
1D8270
63FFC0
400000
ENDCHAR

STARTCHAR char217
ENCODING 217
SWIDTH 24 0
DWIDTH 27 0
BBX 25 24 4 0
BITMAP
00F80000
00680000
00380000
000C0000
00040000
00000000
FFFC7F80
10E03700
08C01400
08C00C00
08C00800
08C00800
08C00800
08C00800
08C00800
08C00800
08C00800
08C00800
08C00800
08C00800
08C00800
04601000
03206000
00FF8000
ENDCHAR

STARTCHAR char218
ENCODING 218
SWIDTH 24 0
DWIDTH 27 0
BBX 25 24 4 0
BITMAP
00078000
00090000
000A0000
000C0000
00080000
00000000
FFFC7F80
10E03700
08C01400
08C00C00
08C00800
08C00800
08C00800
08C00800
08C00800
08C00800
08C00800
08C00800
08C00800
08C00800
08C00800
04601000
03206000
00FF8000
ENDCHAR

STARTCHAR char219
ENCODING 219
SWIDTH 24 0
DWIDTH 27 0
BBX 25 24 4 0
BITMAP
001F0000
001B0000
00298000
00448000
00C7C000
00000000
FFFC7F80
10E03700
08C01400
08C00C00
08C00800
08C00800
08C00800
08C00800
08C00800
08C00800
08C00800
08C00800
08C00800
08C00800
08C00800
04601000
03206000
00FF8000
ENDCHAR

STARTCHAR char220
ENCODING 220
SWIDTH 24 0
DWIDTH 27 0
BBX 25 23 4 0
BITMAP
0030C000
00492000
00492000
0030C000
00000000
FFFC7F80
10603700
08C01400
08C00C00
08C00800
08C00800
08C00800
08C00800
08C00800
08C00800
08C00800
08C00800
08C00800
08C00800
08C00800
04601000
03206000
00FF8000
ENDCHAR

STARTCHAR char223
ENCODING 223
SWIDTH 27 0
DWIDTH 38 0
BBX 37 16 3 0
BITMAP
0781000010
187101FE30
200B0601F0
60050C0070
B003160070
BC01138010
9FF011FE00
80FE181FE0
40078C0070
3801838018
47F0C87E08
400C4C01C8
60024E0028
58018B0028
66018EE030
41FE081FE0
ENDCHAR

STARTCHAR char224
ENCODING 224
SWIDTH 6 0
DWIDTH 22 0
BBX 22 20 3 0
BITMAP
01E000
006000
003000
001000
000000
003000
003000
005800
005800
008C00
018C00
014600
022700
022300
042180
07F180
0808C0
1808C0
2C0860
FF3FFC
ENDCHAR

STARTCHAR char225
ENCODING 225
SWIDTH 6 0
DWIDTH 22 0
BBX 22 20 3 0
BITMAP
001E00
001800
001000
002000
000000
003000
003000
005800
005800
008C00
018C00
014600
022700
022300
042180
07F180
0808C0
1808C0
2C0860
FF3FFC
ENDCHAR

STARTCHAR char226
ENCODING 226
SWIDTH 6 0
DWIDTH 22 0
BBX 22 20 3 0
BITMAP
003800
006C00
009400
008E00
000000
003000
003000
005800
005800
008C00
018C00
014600
022700
022300
042180
07F180
0808C0
1808C0
2C0860
FF3FFC
ENDCHAR

STARTCHAR char227
ENCODING 227
SWIDTH 6 0
DWIDTH 22 0
BBX 22 20 3 0
BITMAP
01E040
03BF80
046F00
041E00
000000
003000
003000
005800
009800
008C00
018C00
014600
024700
042300
042180
0FF180
0808C0
1808C0
280860
FF3FFC
ENDCHAR

STARTCHAR char228
ENCODING 228
SWIDTH 6 0
DWIDTH 22 0
BBX 22 20 3 0
BITMAP
018E00
025200
025200
018C00
000000
003000
003000
007800
005800
008C00
018C00
014600
024700
022300
042380
07F180
0808C0
1808C0
2C0860
FF3FFC
ENDCHAR

STARTCHAR char229
ENCODING 229
SWIDTH 6 0
DWIDTH 22 0
BBX 22 20 3 0
BITMAP
003000
004800
004800
003000
000000
003000
003000
005800
005800
008C00
018C00
014600
024700
022300
042180
07F180
0808C0
1808C0
2C0860
FF3FFC
ENDCHAR

STARTCHAR char230
ENCODING 230
SWIDTH 9 0
DWIDTH 33 0
BBX 29 15 5 0
BITMAP
001FFFF8
000460D8
000A6058
00126038
00226118
00426108
00826700
01027900
01026700
02026100
07FE6008
08026018
18026078
28026098
FF1FFFF8
ENDCHAR

STARTCHAR char231
ENCODING 231
SWIDTH 35 0
DWIDTH 20 0
BBX 17 20 4 -5
BITMAP
07F980
190680
260280
460180
4C0080
8C0080
8C0000
8C0000
8C0000
8C0000
4C0080
460080
260100
1B0600
07F800
00C000
012000
012000
00A000
004000
ENDCHAR

STARTCHAR char232
ENCODING 232
SWIDTH 2 0
DWIDTH 21 0
BBX 19 20 4 0
BITMAP
03C000
014000
00C000
004000
000000
FFFFE0
118260
118160
1180E0
118860
118820
119800
11E800
119800
118800
118020
1180E0
118760
118460
FFFFE0
ENDCHAR

STARTCHAR char233
ENCODING 233
SWIDTH 2 0
DWIDTH 21 0
BBX 19 20 4 0
BITMAP
007800
005000
006000
004000
000000
FFFFE0
118260
118160
1180E0
118860
118820
119800
11E800
119800
118800
118020
1180E0
118760
118460
FFFFE0
ENDCHAR

STARTCHAR char234
ENCODING 234
SWIDTH 2 0
DWIDTH 21 0
BBX 19 20 4 0
BITMAP
00F000
015000
014800
023C00
000000
FFFFE0
118660
118160
1180E0
118860
118820
119800
11E800
119800
118800
118020
1180E0
118760
118460
FFFFE0
ENDCHAR

STARTCHAR char235
ENCODING 235
SWIDTH 2 0
DWIDTH 21 0
BBX 18 20 4 0
BITMAP
031800
04A400
04A400
031800
000000
FFFFC0
1184C0
1182C0
1181C0
1184C0
118C40
119C00
11EC00
119C00
118400
118040
1180C0
1183C0
1182C0
FFFFC0
ENDCHAR

STARTCHAR char236
ENCODING 236
SWIDTH 13 0
DWIDTH 14 0
BBX 11 20 3 0
BITMAP
3C00
1400
0C00
0400
0000
FFE0
3300
1300
1300
1300
1300
1300
1300
1300
1300
1300
1300
1300
1300
FFE0
ENDCHAR

STARTCHAR char237
ENCODING 237
SWIDTH 13 0
DWIDTH 14 0
BBX 11 20 3 0
BITMAP
0E00
1400
1800
1000
0000
FFE0
3300
1300
1300
1300
1300
1300
1300
1300
1300
1300
1300
1300
1300
FFE0
ENDCHAR

STARTCHAR char238
ENCODING 238
SWIDTH 13 0
DWIDTH 14 0
BBX 11 20 3 0
BITMAP
0E00
1500
2580
2380
0000
FFE0
3300
1300
1300
1300
1300
1300
1300
1300
1300
1300
1300
1300
1300
FFE0
ENDCHAR

STARTCHAR char239
ENCODING 239
SWIDTH 13 0
DWIDTH 14 0
BBX 11 20 3 0
BITMAP
2100
5280
5280
2100
0000
FFE0
3100
1100
1100
1100
1100
1100
1100
1100
1100
1100
1100
1100
1100
FFE0
ENDCHAR

STARTCHAR char241
ENCODING 241
SWIDTH 9 0
DWIDTH 23 0
BBX 21 20 4 0
BITMAP
01E080
033A80
04EF00
041C00
000000
FF83F8
21C0E0
10E060
187040
163840
111C40
108E40
104740
1023C0
1010C0
100840
100440
100340
3800C0
FE0040
ENDCHAR

STARTCHAR char242
ENCODING 242
SWIDTH 9 0
DWIDTH 23 0
BBX 19 20 5 0
BITMAP
03C000
014000
00C000
004000
000000
0FFC00
130B00
260980
4604C0
4C0440
8C0460
8C0460
8C0460
8C0460
8C0460
4C0460
4604C0
2608C0
1B0B80
07FE00
ENDCHAR

STARTCHAR char243
ENCODING 243
SWIDTH 9 0
DWIDTH 23 0
BBX 19 20 5 0
BITMAP
003800
005000
006000
004000
000000
0FFC00
130B00
260980
4604C0
4C0440
8C0460
8C0460
8C0460
8C0460
8C0460
4C0460
4604C0
2608C0
1B0B80
07FE00
ENDCHAR

STARTCHAR char244
ENCODING 244
SWIDTH 9 0
DWIDTH 23 0
BBX 19 20 5 0
BITMAP
00F000
015800
014800
023C00
000000
0FFC00
130B00
260980
4604C0
4C0440
8C0460
8C0460
8C0460
8C0460
8C0460
4C0460
4604C0
2608C0
1B0B80
07FE00
ENDCHAR

STARTCHAR char245
ENCODING 245
SWIDTH 9 0
DWIDTH 23 0
BBX 19 20 5 0
BITMAP
03C100
067500
09DE00
083800
000000
0FFC00
130B00
260980
4604C0
4C0440
8C0460
8C0460
8C0460
8C0460
8C0460
4C0460
4404C0
2608C0
1B0B80
07FE00
ENDCHAR

STARTCHAR char246
ENCODING 246
SWIDTH 9 0
DWIDTH 23 0
BBX 19 20 5 0
BITMAP
031800
04AC00
04A400
031800
000000
0FFC00
130B00
260980
4604C0
4C0460
8C0460
8C0460
8C0460
8C0460
8C0460
4C0460
4604E0
2608C0
1B1380
07FE00
ENDCHAR

STARTCHAR char247
ENCODING 247
SWIDTH 6 0
DWIDTH 22 0
BBX 20 14 4 3
BITMAP
006000
00F000
00F000
006000
000000
000000
FFFFF0
FFFFF0
000000
000000
006000
00F000
00F000
006000
ENDCHAR

STARTCHAR char248
ENCODING 248
SWIDTH 9 0
DWIDTH 23 0
BBX 19 16 5 -1
BITMAP
0FFCC0
130B00
260980
4608C0
4C0C60
8C1460
8C2460
8C4460
8C8460
8D0460
4E0460
4404C0
2608C0
320B80
CFFE00
400000
ENDCHAR

STARTCHAR char249
ENCODING 249
SWIDTH 6 0
DWIDTH 22 0
BBX 20 20 4 0
BITMAP
03C000
00C000
006000
002000
000000
FFE7F0
238160
1301C0
130080
130080
130080
130080
130080
130080
130080
130080
130080
1B0080
098300
07FC00
ENDCHAR

STARTCHAR char250
ENCODING 250
SWIDTH 6 0
DWIDTH 22 0
BBX 20 20 4 0
BITMAP
003C00
003000
002000
004000
000000
FFE7F0
238160
1301C0
130080
130080
130080
130080
130080
130080
130080
130080
130080
1B0080
098300
07FC00
ENDCHAR

STARTCHAR char251
ENCODING 251
SWIDTH 6 0
DWIDTH 22 0
BBX 20 20 4 0
BITMAP
007000
00D800
012C00
021C00
000000
FFE7F0
238160
1301C0
130080
130080
130080
130080
130080
130080
130080
130080
130080
1B0080
098300
07FC00
ENDCHAR

STARTCHAR char252
ENCODING 252
SWIDTH 6 0
DWIDTH 22 0
BBX 20 20 4 0
BITMAP
00C400
012A00
012A00
00C400
000000
FFE7F0
218160
1301C0
130080
130080
130080
130080
130080
130080
130080
130080
130080
190080
098300
07FC00
ENDCHAR

STARTCHAR char255
ENCODING 255
SWIDTH 6 0
DWIDTH 22 0
BBX 22 20 3 0
BITMAP
018400
024A00
034A00
008400
000000
FFFBFC
1080B0
08C0C0
08C080
046080
023100
021A00
011A00
010C00
008C00
008C00
008C00
008C00
008C00
07FF80
ENDCHAR
ENDFONT
